# xmcd
#
# Track frame offsets:
#	150
#	12977
#	22247
#	37030
#	54377
#	74605
#	89290
#	100992
#	115847
#	129142
#	144550
#	159307
#	172862
#	186457
#	204025
#	217722
#	232620
#	243640
#	252432
#	262122
#
# Disc length: 3625 seconds
#
# Revision: 4
# Processed by: cddbd v1.5.2PL0 Copyright (c) Steve Scherf et al.
# Submitted via: EasyCDDAExtractor 11.0.2.1
#
DISCID=110e2714
DTITLE=Various Artist - [I Blueskvarter (Chicago 1964), volume 1 CD 2]
DYEAR=1999
DGENRE=Blues
TTITLE0=Johhny Young and Slim Willis, Otis Spann, Robert Whitehead - Why Did You
TTITLE0=Break My Heart 
TTITLE1=Johhny Young and Slim Willis, Otis Spann, Robert Whitehead - Better Cut 
TTITLE1=It Out 
TTITLE2=Johhny Young and Slim Willis, Otis Spann, Robert Whitehead - My Baby Wal
TTITLE2=ked Out AAnd Left me
TTITLE3=Johhny Young and Slim Willis, Otis Spann, Robert Whitehead - Step By, Ba
TTITLE3=by
TTITLE4=Johhny Young and Slim Willis, Otis Spann, Robert Whitehead - Moneky-face
TTITLE4=Woman
TTITLE5=Sunnyland Slim and Mike Bloomfield - Brownskin Woman
TTITLE6=Sunnyland Slim and Mike Bloomfield - It's You Baby
TTITLE7=Sunnyland Slim and Mike Bloomfield - One Room Country Shack
TTITLE8=Sunnyland Slim and Mike Bloomfield - Sunnyland's Jump
TTITLE9=Sunnyland Slim and Mike Bloomfield - Rock Me
TTITLE10=Walter Horton and Robert Nighthawk - Let's Have A Good Time
TTITLE11=Walter Horton and Robert Nighthawk - Mean Mistreater
TTITLE12=Walter Horton and Robert Nighthawk - I'm In The Mood
TTITLE13=Walter Horton and Robert Nighthawk - Louise, Louise
TTITLE14=Walter Horton and Robert Nighthawk - You Don't Mistreat Me
TTITLE15=Walter Horton and Robert Nighthawk - Trouble In Mind
TTITLE16=Interviews - Willie Mabon
TTITLE17=Interviews - James Brewer
TTITLE18=Interviews - Eddie Boyd
TTITLE19=Interviews - Yank Rachell
EXTD=Olle Hellander's blues recordings for the Swedish Broadcasting Corporatio
EXTD=n.\n\n 1 -  5: Johnny Young, vocal, guitar - Slim Willis, harmonica - OtisS
EXTD=pann, piano - Robert Whitehead, drums (23/5 1964]\n 6 - 10: Sunnyland Slim
EXTD=vocal, piano - Mike Bloomfield, guitar (19/5 1964]\n11 - 16: Walter Horto
EXTD=n, vocal, harmonica - Robert Nighthawk, guitar - (23/5 1964]\n17 - 20: Inte
EXTD=rviews - Willie Mabon (16/5 1964), James Brewer (16/5 1964), Eddie Boyd (1
EXTD=6/5 1964), Yank Rachell (16/5 1964)
EXTT0=(Johnny Young)
EXTT1=(William Broonzy)
EXTT2=(Johnny Young)
EXTT3=(Johnny Young)
EXTT4=(James B. Oden)
EXTT5=(Albert Luandrew)
EXTT6=(Albert Luandrew)
EXTT7=(Mercy Dee Walton)
EXTT8=(Albert Luandrew)
EXTT9=(Wiliam Broonzy)
EXTT10=(Walter Horton)
EXTT11=(Leroy Carr)
EXTT12=(Walter Horton)
EXTT13=(William Broonzy)
EXTT14=(Walter Horton)
EXTT15=(Walter Horton)
EXTT16=
EXTT17=
EXTT18=
EXTT19=
PLAYORDER=
